<mxfile host="65bd71144e">
    <diagram id="St0tiUzeq7Eviy4vLdDb" name="Page-1">
        <mxGraphModel dx="509" dy="1150" grid="1" gridSize="10" guides="1" tooltips="1" connect="1" arrows="1" fold="1" page="1" pageScale="1" pageWidth="850" pageHeight="1100" math="0" shadow="0">
            <root>
                <mxCell id="0"/>
                <mxCell id="1" parent="0"/>
                <mxCell id="2" value="PowerShell" style="shape=umlLifeline;perimeter=lifelinePerimeter;whiteSpace=wrap;html=1;container=1;collapsible=0;recursiveResize=0;outlineConnect=0;" parent="1" vertex="1">
                    <mxGeometry x="30" y="40" width="100" height="300" as="geometry"/>
                </mxCell>
                <mxCell id="3" value="PSDriveInfo" style="shape=umlLifeline;perimeter=lifelinePerimeter;whiteSpace=wrap;html=1;container=1;collapsible=0;recursiveResize=0;outlineConnect=0;" parent="1" vertex="1">
                    <mxGeometry x="200" y="40" width="100" height="300" as="geometry"/>
                </mxCell>
                <mxCell id="9" value="" style="html=1;points=[];perimeter=orthogonalPerimeter;" parent="3" vertex="1">
                    <mxGeometry x="45" y="100" width="10" height="50" as="geometry"/>
                </mxCell>
                <mxCell id="8" value="DictionaryFileSystemProvider" style="shape=umlLifeline;perimeter=lifelinePerimeter;whiteSpace=wrap;html=1;container=1;collapsible=0;recursiveResize=0;outlineConnect=0;" parent="1" vertex="1">
                    <mxGeometry x="325" y="40" width="175" height="300" as="geometry"/>
                </mxCell>
                <mxCell id="14" value="" style="html=1;points=[];perimeter=orthogonalPerimeter;" parent="8" vertex="1">
                    <mxGeometry x="83" y="200" width="10" height="80" as="geometry"/>
                </mxCell>
                <mxCell id="15" value="NewDrive(psDriveInfo)" style="html=1;verticalAlign=bottom;startArrow=oval;endArrow=block;startSize=8;" parent="8" target="14" edge="1">
                    <mxGeometry relative="1" as="geometry">
                        <mxPoint x="-245" y="200" as="sourcePoint"/>
                    </mxGeometry>
                </mxCell>
                <mxCell id="10" value="" style="html=1;verticalAlign=bottom;endArrow=block;entryX=0;entryY=0;" parent="1" source="2" target="9" edge="1">
                    <mxGeometry relative="1" as="geometry">
                        <mxPoint x="175" y="100" as="sourcePoint"/>
                        <Array as="points">
                            <mxPoint x="110" y="140"/>
                        </Array>
                    </mxGeometry>
                </mxCell>
                <mxCell id="11" value="return psDriveInfo" style="html=1;verticalAlign=bottom;endArrow=open;dashed=1;endSize=8;exitX=0.1;exitY=0.92;exitDx=0;exitDy=0;exitPerimeter=0;" parent="1" source="9" target="2" edge="1">
                    <mxGeometry relative="1" as="geometry">
                        <mxPoint x="175" y="176" as="targetPoint"/>
                    </mxGeometry>
                </mxCell>
                <mxCell id="12" value="" style="html=1;points=[];perimeter=orthogonalPerimeter;" parent="1" vertex="1">
                    <mxGeometry x="75" y="110" width="10" height="150" as="geometry"/>
                </mxCell>
                <mxCell id="13" value="New-PsDrive" style="edgeStyle=orthogonalEdgeStyle;html=1;align=left;spacingLeft=2;endArrow=block;rounded=0;" parent="1" source="2" edge="1">
                    <mxGeometry y="10" relative="1" as="geometry">
                        <mxPoint x="70" y="77" as="sourcePoint"/>
                        <Array as="points">
                            <mxPoint x="150" y="90"/>
                            <mxPoint x="150" y="110"/>
                        </Array>
                        <mxPoint x="80" y="110" as="targetPoint"/>
                        <mxPoint as="offset"/>
                    </mxGeometry>
                </mxCell>
                <mxCell id="18" value="DictionaryFileSystemDriveInfo" style="shape=umlLifeline;perimeter=lifelinePerimeter;whiteSpace=wrap;html=1;container=1;collapsible=0;recursiveResize=0;outlineConnect=0;" parent="1" vertex="1">
                    <mxGeometry x="520" y="40" width="170" height="300" as="geometry"/>
                </mxCell>
                <mxCell id="22" value="create from psDriveInfo" style="html=1;verticalAlign=bottom;startArrow=oval;startFill=1;endArrow=block;startSize=8;" parent="1" target="18" edge="1">
                    <mxGeometry x="-0.0198" y="10" width="60" relative="1" as="geometry">
                        <mxPoint x="420" y="250" as="sourcePoint"/>
                        <mxPoint x="600" y="290" as="targetPoint"/>
                        <Array as="points">
                            <mxPoint x="480" y="250"/>
                        </Array>
                        <mxPoint as="offset"/>
                    </mxGeometry>
                </mxCell>
            </root>
        </mxGraphModel>
    </diagram>
</mxfile>